<?xml version="1.0" standalone="no"?><!DOCTYPE svg PUBLIC "-//W3C//DTD SVG 1.1//EN" "http://www.w3.org/Graphics/SVG/1.1/DTD/svg11.dtd"><svg class="icon" width="200px" height="200.00px" viewBox="0 0 1024 1024" version="1.1" xmlns="http://www.w3.org/2000/svg"><path fill="#FFF" d="M970.123952 425.858084l-241.336534 196.024535 80.022545 300.4427c2.90619 10.918677-3.591805 22.134113-14.510482 25.040303-1.77032 0.470721-3.540639 0.695848-5.28026 0.695848-9.046027 0-17.324574-6.04774-19.760043-15.20633l-83.430154-313.234027c-2.077312-7.797593 0.613984-16.07614 6.866385-21.161972l210.422454-170.912601-270.684956-14.592346c-8.05342-0.429789-15.093766-5.54632-17.999956-13.06762l-97.531314-252.930593-97.531314 252.930593c-2.90619 7.521301-9.946536 12.637832-17.999956 13.06762l-270.684956 14.592346 210.422454 170.912601c6.252401 5.085832 8.943696 13.364379 6.866385 21.161972l-69.769017 261.945921 227.573065-147.284461c6.764054-4.379751 15.47239-4.379751 22.246677 0l112.543216 72.838935c9.496282 6.15007 12.208043 18.818601 6.068206 28.304649-6.15007 9.486048-18.818601 12.208043-28.304649 6.057973l-101.43011-65.645093-261.004479 168.93762c-7.111978 4.594645-16.311501 4.349051-23.157419-0.63445-6.845918-4.973268-9.92607-13.640672-7.746428-21.816888l80.022545-300.4427-241.336534-196.024535c-6.569626-5.331425-9.179057-14.162558-6.559393-22.215978 2.609431-8.043187 9.915837-13.650905 18.358113-14.111392l310.460868-16.731056 111.867834-290.097074c3.039219-7.889691 10.632151-13.098319 19.094894-13.098319 8.462742 0 16.055674 5.208629 19.094894 13.098319l111.867834 290.097074 310.460868 16.731056c8.452509 0.460488 15.748682 6.068206 18.358113 14.111392C979.303009 411.695526 976.693578 420.526659 970.123952 425.858084z" /></svg>