<?xml version="1.0" standalone="no"?><!DOCTYPE svg PUBLIC "-//W3C//DTD SVG 1.1//EN" "http://www.w3.org/Graphics/SVG/1.1/DTD/svg11.dtd"><svg class="icon" width="200px" height="199.80px" viewBox="0 0 1025 1024" version="1.1" xmlns="http://www.w3.org/2000/svg"><path fill="#FFF" d="M540.172639 32.888038c-7.337105-3.305279-15.932878-2.00568-21.970384 3.325745l-316.65187 280.08914L20.46612 316.302923c-11.307533 0-20.466124 9.15859-20.466124 20.466124l0 327.232856c0 11.2973 9.15859 20.466124 20.466124 20.466124l175.957501 0c11.307533 0 20.466124-9.168824 20.466124-20.466124l0-308.23006c2.169409-0.859577 4.195555-2.097778 5.976108-3.673669l288.439318-255.130701 0 798.066271-196.362226-168.139441c-8.575306-7.357572-21.499663-6.354731-28.847002 2.230808-7.357572 8.585539-6.354731 21.499663 2.230808 28.857235l230.131331 197.068308c3.776 3.243881 8.524141 4.922103 13.313214 4.922103 2.895957 0 5.812379-0.613984 8.55484-1.87265 7.255241-3.346211 11.911284-10.601452 11.911284-18.593474L552.237419 51.54291C552.237419 43.499723 547.509744 36.193317 540.172639 32.888038zM175.957497 643.535779 40.932244 643.535779l0-286.300608 135.025253 0L175.957497 643.535779zM736.299505 495.52477c0 62.974263-42.549072 118.069069-103.46649 133.991714-1.729387 0.460488-3.479241 0.675382-5.188162 0.675382-9.086959 0-17.385972-6.098905-19.790742-15.298428-2.855024-10.92891 3.694135-22.113647 14.623046-24.968671 42.917462-11.225669 72.890101-50.039673 72.890101-94.399997 0-44.350091-29.972639-83.174328-72.890101-94.389764-10.92891-2.865257-17.47807-14.039761-14.623046-24.978904 2.865257-10.939143 14.049994-17.47807 24.978904-14.623046C693.750433 377.455701 736.299505 432.56074 736.299505 495.52477zM879.470275 495.760131c0 108.562555-59.310827 208.201879-154.785296 260.042571-3.100618 1.678222-6.446829 2.476401-9.752108 2.476401-7.255241 0-14.295588-3.868097-17.999956-10.703783-5.392824-9.936303-1.708921-22.35924 8.217149-27.752064 82.273818-44.667316 133.387963-130.522706 133.387963-224.063125 0-93.867878-51.369971-179.89723-134.053112-224.503147-9.956769-5.372358-13.671371-17.785062-8.299013-27.731598 5.362124-9.946536 17.785062-13.661138 27.731598-8.299013C819.862689 286.995433 879.470275 386.818953 879.470275 495.760131zM1024.206704 495.52477c0 78.088496-21.847587 154.13038-63.178925 219.908502-40.205701 63.96687-97.060593 115.746164-164.435073 149.740396-2.947122 1.483794-6.098905 2.189875-9.199523 2.189875-7.480368 0-14.684444-4.113691-18.286482-11.246135-5.096065-10.089799-1.043772-22.400173 9.05626-27.496238 60.712757-30.627555 111.970164-77.30055 148.205437-134.974088 37.227879-59.239196 56.906058-127.749546 56.906058-198.122313s-19.678178-138.883117-56.906058-198.122313c-36.235272-57.663304-87.49268-104.3363-148.205437-134.974088-10.100032-5.085832-14.152325-17.396205-9.05626-27.486004 5.085832-10.100032 17.396205-14.152325 27.486004-9.05626 67.37448 33.983999 124.229372 85.763292 164.435073 149.740396C1002.359117 341.394391 1024.206704 417.436274 1024.206704 495.52477z" /></svg>